<svg width="26" height="28" viewBox="0 0 26 28" fill="none" xmlns="http://www.w3.org/2000/svg">
<path d="M21 9C21 6.87827 20.1571 4.84344 18.6569 3.34315C17.1566 1.84285 15.1217 1 13 1C10.8783 1 8.84344 1.84285 7.34315 3.34315C5.84286 4.84344 5 6.87827 5 9C5 18.3333 1 21 1 21H25C25 21 21 18.3333 21 9Z" stroke="#6B7280" stroke-width="2" stroke-linecap="round" stroke-linejoin="round"/>
<path d="M15 26C14.7968 26.3042 14.505 26.5566 14.154 26.7321C13.803 26.9076 13.4051 27 13 27C12.5949 27 12.197 26.9076 11.846 26.7321C11.495 26.5566 11.2032 26.3042 11 26" stroke="#6B7280" stroke-width="2" stroke-linecap="round" stroke-linejoin="round"/>
</svg>
