<svg width="20" height="20" viewBox="0 0 20 20" fill="none" xmlns="http://www.w3.org/2000/svg">
<path opacity="0.4" d="M15.5583 1.6665H13.975C12.1583 1.6665 11.2 2.62484 11.2 4.4415V6.02484C11.2 7.8415 12.1583 8.79984 13.975 8.79984H15.5583C17.375 8.79984 18.3333 7.8415 18.3333 6.02484V4.4415C18.3333 2.62484 17.375 1.6665 15.5583 1.6665Z" fill="white"/>
<path opacity="0.4" d="M6.03333 11.1919H4.45C2.625 11.1919 1.66667 12.1502 1.66667 13.9669V15.5502C1.66667 17.3752 2.625 18.3336 4.44167 18.3336H6.025C7.84167 18.3336 8.8 17.3752 8.8 15.5586V13.9752C8.80833 12.1502 7.85 11.1919 6.03333 11.1919Z" fill="white"/>
<path d="M5.24167 8.8165C7.21608 8.8165 8.81667 7.21592 8.81667 5.2415C8.81667 3.26709 7.21608 1.6665 5.24167 1.6665C3.26725 1.6665 1.66667 3.26709 1.66667 5.2415C1.66667 7.21592 3.26725 8.8165 5.24167 8.8165Z" fill="white"/>
<path d="M14.7583 18.3331C16.7328 18.3331 18.3333 16.7325 18.3333 14.7581C18.3333 12.7837 16.7328 11.1831 14.7583 11.1831C12.7839 11.1831 11.1833 12.7837 11.1833 14.7581C11.1833 16.7325 12.7839 18.3331 14.7583 18.3331Z" fill="white"/>
</svg>
