<svg width="24" height="24" viewBox="0 0 24 24" fill="none" xmlns="http://www.w3.org/2000/svg">
<path d="M11.949 14.54C8.49904 14.54 5.58809 15.1038 5.58809 17.2795C5.58809 19.4562 8.51785 20.0001 11.949 20.0001C15.399 20.0001 18.31 19.4364 18.31 17.2606C18.31 15.084 15.3802 14.54 11.949 14.54Z" fill="#8095A7"/>
<path d="M11.949 12.467C14.2851 12.467 16.1583 10.5831 16.1583 8.23351C16.1583 5.88306 14.2851 4 11.949 4C9.61292 4 7.73974 5.88306 7.73974 8.23351C7.73974 10.5831 9.61292 12.467 11.949 12.467Z" fill="white"/>
<path d="M21.088 9.21923C21.6924 6.84176 19.9204 4.70654 17.6639 4.70654C17.4186 4.70654 17.184 4.73356 16.9548 4.77949C16.9243 4.78669 16.8903 4.802 16.8724 4.82902C16.8518 4.86324 16.867 4.90917 16.8894 4.93889C17.5672 5.89528 17.9567 7.0597 17.9567 8.30967C17.9567 9.50741 17.5995 10.6241 16.9727 11.5508C16.9082 11.6462 16.9655 11.775 17.0792 11.7948C17.2368 11.8227 17.398 11.8371 17.5628 11.8416C19.2058 11.8849 20.6805 10.8213 21.088 9.21923Z" fill="white"/>
<path d="M22.8093 14.817C22.5084 14.1722 21.7823 13.73 20.6782 13.513C20.1571 13.3851 18.7468 13.205 17.4351 13.2293C17.4154 13.232 17.4046 13.2455 17.4028 13.2545C17.4002 13.2671 17.4055 13.2887 17.4315 13.3022C18.0377 13.6039 20.3809 14.916 20.0864 17.6834C20.0738 17.8032 20.1696 17.9068 20.2887 17.8888C20.8654 17.8059 22.349 17.4853 22.8093 16.4866C23.0636 15.9589 23.0636 15.3456 22.8093 14.817Z" fill="#8095A7"/>
<path d="M7.04482 4.77998C6.81649 4.73315 6.581 4.70703 6.33566 4.70703C4.07925 4.70703 2.30724 6.84225 2.91254 9.21972C3.31905 10.8218 4.79378 11.8854 6.43684 11.8421C6.60159 11.8376 6.76366 11.8223 6.92036 11.7953C7.03407 11.7755 7.09138 11.6467 7.02691 11.5513C6.40013 10.6237 6.04286 9.5079 6.04286 8.31016C6.04286 7.05928 6.43326 5.89486 7.11108 4.93937C7.13257 4.90966 7.14869 4.86373 7.1272 4.82951C7.10929 4.80159 7.07616 4.78718 7.04482 4.77998Z" fill="white"/>
<path d="M3.32156 13.5127C2.21752 13.7297 1.49225 14.1719 1.19139 14.8167C0.936203 15.3453 0.936203 15.9586 1.19139 16.4872C1.65163 17.4851 3.13531 17.8066 3.71195 17.8885C3.83104 17.9065 3.92595 17.8038 3.91342 17.6832C3.61883 14.9167 5.9621 13.6046 6.56918 13.3029C6.59425 13.2885 6.59962 13.2677 6.59694 13.2542C6.59515 13.2452 6.5853 13.2317 6.5656 13.2299C5.25294 13.2047 3.84358 13.3848 3.32156 13.5127Z" fill="#8095A7"/>
</svg>
