<svg width="44" height="44" viewBox="0 0 44 44" fill="none" xmlns="http://www.w3.org/2000/svg">
<rect x="0.5" y="0.5" width="43" height="43" rx="21.5" fill="white"/>
<rect x="0.5" y="0.5" width="43" height="43" rx="21.5" stroke="#C4C4CE"/>
<g clip-path="url(#clip0_1_1822)">
<path d="M32 17.8095L32 26.1905C32 29.399 29.399 32 26.1905 32L17.8095 32C14.601 32 12 29.399 12 26.1905L12 17.8095C12 14.601 14.601 12 17.8095 12L26.1905 12C29.399 12 32 14.601 32 17.8095Z" fill="#0A000F"/>
<path d="M16.3597 19.8129L16.3597 24.1857C16.3597 26.0895 17.9091 27.6389 19.8129 27.6389L24.1857 27.6389C26.0895 27.6389 27.6389 26.0895 27.6389 24.1857L27.6389 19.8129C27.6389 17.9091 26.0895 16.3597 24.1857 16.3597L19.8129 16.3597C17.9091 16.3597 16.3597 17.9091 16.3597 19.8129ZM26.7954 24.1872C26.7954 25.6253 25.6253 26.7969 24.1857 26.7969L19.8129 26.7969C18.3748 26.7969 17.2032 25.6268 17.2032 24.1872L17.2032 19.8144C17.2032 18.3763 18.3733 17.2047 19.8129 17.2047L24.1857 17.2047C25.6238 17.2047 26.7954 18.3748 26.7954 19.8144L26.7954 24.1872Z" fill="white"/>
<path d="M19.1466 22.0008C19.1466 23.5736 20.4265 24.8535 21.9993 24.8535C23.5721 24.8535 24.8521 23.5736 24.8521 22.0008C24.8521 20.4279 23.5721 19.148 21.9993 19.148C20.4265 19.148 19.1466 20.4279 19.1466 22.0008ZM23.988 22.0008C23.988 23.0976 23.0962 23.9895 21.9993 23.9895C20.9024 23.9895 20.0106 23.0976 20.0106 22.0008C20.0106 20.9039 20.9024 20.012 21.9993 20.012C23.0962 20.012 23.988 20.9039 23.988 22.0008Z" fill="white"/>
<path d="M25.164 18.0937C24.754 18.0937 24.4215 18.4261 24.4215 18.8361C24.4215 19.2462 24.754 19.5786 25.164 19.5786C25.5741 19.5786 25.9065 19.2462 25.9065 18.8361C25.9065 18.4261 25.5741 18.0937 25.164 18.0937Z" fill="white"/>
</g>
<defs>
<clipPath id="clip0_1_1822">
<rect width="20" height="20" fill="white" transform="matrix(-4.37114e-08 -1 -1 4.37114e-08 32 32)"/>
</clipPath>
</defs>
</svg>
