<svg width="44" height="44" viewBox="0 0 44 44" fill="none" xmlns="http://www.w3.org/2000/svg">
<g clip-path="url(#clip0_1_1813)">
<rect width="44" height="44" rx="22" fill="white"/>
<g clip-path="url(#clip1_1_1813)">
<path fill-rule="evenodd" clip-rule="evenodd" d="M18.3038 19.1989V30H14.7071V19.1989H18.3038ZM18.5327 15.8638C18.54 16.3942 18.3565 16.8374 17.9823 17.1935C17.6081 17.5495 17.1158 17.7275 16.5054 17.7275H16.4837C15.8878 17.7275 15.4083 17.5495 15.045 17.1935C14.6817 16.8374 14.5 16.3942 14.5 15.8638C14.5 15.3261 14.6871 14.881 15.0613 14.5286C15.4355 14.1762 15.9242 14 16.5272 14C17.1303 14 17.6135 14.1762 17.9768 14.5286C18.3401 14.881 18.5254 15.3261 18.5327 15.8638ZM23.8733 20.7338C24.0117 20.5156 24.1534 20.3237 24.2984 20.158C24.451 19.9836 24.6562 19.7947 24.9142 19.5913C25.1721 19.3878 25.4882 19.2298 25.8624 19.1172C26.2366 19.0045 26.6526 18.9482 27.1104 18.9482C28.3529 18.9482 29.3519 19.3606 30.1076 20.1853C30.8633 21.01 31.2411 22.218 31.2411 23.8093V30H27.6553V24.2234C27.6553 23.4605 27.5082 22.8629 27.2139 22.4305C26.9196 21.9982 26.46 21.782 25.8351 21.782C25.3774 21.782 24.9941 21.9074 24.6853 22.158C24.3765 22.4087 24.1458 22.7193 23.9932 23.0899C23.9133 23.3079 23.8733 23.6022 23.8733 23.9728V30H20.2875C20.302 27.1008 20.3093 24.7502 20.3093 22.9482C20.3093 21.1462 20.3056 20.0708 20.2984 19.7221L20.2875 19.1989H23.8733V20.7338Z" fill="#2E2E38"/>
</g>
</g>
<rect x="0.5" y="0.5" width="43" height="43" rx="21.5" stroke="#C4C4CE"/>
<defs>
<clipPath id="clip0_1_1813">
<rect width="44" height="44" rx="22" fill="white"/>
</clipPath>
<clipPath id="clip1_1_1813">
<rect width="17" height="16" fill="white" transform="translate(14.5 14)"/>
</clipPath>
</defs>
</svg>
