<svg width="44" height="44" viewBox="0 0 44 44" fill="none" xmlns="http://www.w3.org/2000/svg">
<g clip-path="url(#clip0_1_1827)">
<rect width="44" height="44" rx="22" fill="white"/>
<g clip-path="url(#clip1_1_1827)">
<path fill-rule="evenodd" clip-rule="evenodd" d="M33.5402 16.8423C34 18.5133 34 22 34 22C34 22 34 25.4865 33.5402 27.1578C33.2872 28.0797 32.5419 28.8058 31.5951 29.0523C29.8796 29.5 23 29.5 23 29.5C23 29.5 16.1204 29.5 14.4047 29.0523C13.4581 28.8058 12.7126 28.0797 12.4596 27.1578C12 25.4865 12 22 12 22C12 22 12 18.5133 12.4596 16.8423C12.7126 15.9203 13.4581 15.1942 14.4047 14.9478C16.1204 14.5 23 14.5 23 14.5C23 14.5 29.8796 14.5 31.5951 14.9478C32.5419 15.1942 33.2872 15.9203 33.5402 16.8423ZM20.75 25.1656L26.5 22.0001L20.75 18.8344V25.1656Z" fill="#2E2E38"/>
</g>
</g>
<rect x="0.5" y="0.5" width="43" height="43" rx="21.5" stroke="#C4C4CE"/>
<defs>
<clipPath id="clip0_1_1827">
<rect width="44" height="44" rx="22" fill="white"/>
</clipPath>
<clipPath id="clip1_1_1827">
<rect width="22" height="15" fill="white" transform="translate(12 14.5)"/>
</clipPath>
</defs>
</svg>
